<?xml version="1.0" encoding="UTF-8"?>
<!DOCTYPE svg PUBLIC "-//W3C//DTD SVG 1.1//EN" "http://www.w3.org/Graphics/SVG/1.1/DTD/svg11.dtd">
<svg xmlns="http://www.w3.org/2000/svg" version="1.1" width="512px" height="512px" style="shape-rendering:geometricPrecision; text-rendering:geometricPrecision; image-rendering:optimizeQuality; fill-rule:evenodd; clip-rule:evenodd" xmlns:xlink="http://www.w3.org/1999/xlink">
<g><path style="opacity:1" fill="#db2828" d="M 119.5,-0.5 C 201.167,-0.5 282.833,-0.5 364.5,-0.5C 364.333,38.1681 364.5,76.8348 365,115.5C 367.09,129.589 374.924,138.756 388.5,143C 429.499,143.5 470.499,143.667 511.5,143.5C 511.5,155.5 511.5,167.5 511.5,179.5C 371.167,179.5 230.833,179.5 90.5,179.5C 90.3333,129.166 90.5,78.8322 91,28.5C 95.3497,13.6512 104.85,3.98451 119.5,-0.5 Z"/></g>
<g><path style="opacity:1" fill="#f0969d" d="M 364.5,-0.5 C 370.5,-0.5 376.5,-0.5 382.5,-0.5C 425.167,42.8333 468.167,85.8333 511.5,128.5C 511.5,133.5 511.5,138.5 511.5,143.5C 470.499,143.667 429.499,143.5 388.5,143C 374.924,138.756 367.09,129.589 365,115.5C 364.5,76.8348 364.333,38.1681 364.5,-0.5 Z"/></g>
<g><path style="opacity:1" fill="#f3e0e0" d="M 90.5,179.5 C 230.833,179.5 371.167,179.5 511.5,179.5C 511.5,280.5 511.5,381.5 511.5,482.5C 506.833,497.167 497.167,506.833 482.5,511.5C 361.5,511.5 240.5,511.5 119.5,511.5C 104.85,507.015 95.3497,497.349 91,482.5C 90.5001,464.836 90.3334,447.17 90.5,429.5C 190.834,429.667 291.167,429.5 391.5,429C 407.172,426.328 417.672,417.495 423,402.5C 424.128,380.031 424.628,357.531 424.5,335C 424.639,313.126 424.139,291.293 423,269.5C 417.697,254.534 407.197,245.7 391.5,243C 291.167,242.5 190.834,242.333 90.5,242.5C 90.5,221.5 90.5,200.5 90.5,179.5 Z"/></g>
<g><path style="opacity:0.999" fill="#db2928" d="M 90.5,242.5 C 190.834,242.333 291.167,242.5 391.5,243C 407.197,245.7 417.697,254.534 423,269.5C 424.139,291.293 424.639,313.126 424.5,335C 424.628,357.531 424.128,380.031 423,402.5C 417.672,417.495 407.172,426.328 391.5,429C 291.167,429.5 190.834,429.667 90.5,429.5C 68.7801,429.956 47.1134,429.456 25.5,428C 12.1526,423.155 3.48598,413.989 -0.5,400.5C -0.5,357.5 -0.5,314.5 -0.5,271.5C 3.48598,258.011 12.1526,248.845 25.5,244C 47.1134,242.544 68.7801,242.044 90.5,242.5 Z"/></g>
<g><path style="opacity:1" fill="#fefafa" d="M 308.5,268.5 C 333.758,266.767 347.091,278.433 348.5,303.5C 343.167,303.5 337.833,303.5 332.5,303.5C 331.824,288.658 324.157,282.492 309.5,285C 304.6,286.902 301.433,290.402 300,295.5C 299.333,316.167 299.333,336.833 300,357.5C 305.361,369.72 314.194,372.887 326.5,367C 329.106,365.062 330.939,362.562 332,359.5C 333.311,351.895 333.811,344.228 333.5,336.5C 327.5,336.5 321.5,336.5 315.5,336.5C 315.5,331.5 315.5,326.5 315.5,321.5C 326.833,321.5 338.167,321.5 349.5,321.5C 349.667,333.838 349.5,346.171 349,358.5C 343.844,378.338 331.011,387.171 310.5,385C 293.341,382.169 284.174,372.002 283,354.5C 282.333,334.833 282.333,315.167 283,295.5C 285.911,281.092 294.411,272.092 308.5,268.5 Z"/></g>
<g><path style="opacity:1" fill="#fef7f7" d="M 81.5,401.5 C 79.8333,401.5 78.1667,401.5 76.5,401.5C 76.5,396.5 76.5,391.5 76.5,386.5C 85.6007,386.689 91.434,382.355 94,373.5C 94.5,339.168 94.6667,304.835 94.5,270.5C 100.167,270.5 105.833,270.5 111.5,270.5C 111.96,305.868 111.46,341.202 110,376.5C 106.522,391.817 97.0223,400.15 81.5,401.5 Z"/></g>
<g><path style="opacity:1" fill="#fefdfd" d="M 133.5,270.5 C 144.838,270.333 156.172,270.5 167.5,271C 183.476,272.305 193.31,280.805 197,296.5C 200.618,331.715 184.785,347.382 149.5,343.5C 149.5,356.833 149.5,370.167 149.5,383.5C 144.167,383.5 138.833,383.5 133.5,383.5C 133.5,345.833 133.5,308.167 133.5,270.5 Z"/></g>
<g><path style="opacity:1" fill="#fefefe" d="M 266.5,285.5 C 253.5,285.5 240.5,285.5 227.5,285.5C 227.172,296.679 227.505,307.679 228.5,318.5C 240.167,318.5 251.833,318.5 263.5,318.5C 263.5,323.5 263.5,328.5 263.5,333.5C 251.833,333.5 240.167,333.5 228.5,333.5C 227.505,344.988 227.172,356.655 227.5,368.5C 241.167,368.5 254.833,368.5 268.5,368.5C 268.5,373.5 268.5,378.5 268.5,383.5C 249.5,383.5 230.5,383.5 211.5,383.5C 211.5,345.833 211.5,308.167 211.5,270.5C 229.833,270.5 248.167,270.5 266.5,270.5C 266.5,275.5 266.5,280.5 266.5,285.5 Z"/></g>
<g><path style="opacity:1" fill="#db2c2b" d="M 149.5,285.5 C 155.176,285.334 160.843,285.501 166.5,286C 177.117,288.874 181.784,295.874 180.5,307C 181.779,318.139 177.112,325.139 166.5,328C 160.843,328.499 155.176,328.666 149.5,328.5C 149.5,314.167 149.5,299.833 149.5,285.5 Z"/></g>
<g><path style="opacity:1" fill="#e77171" d="M 266.5,285.5 C 254.011,286.495 241.344,286.829 228.5,286.5C 228.5,297.167 228.5,307.833 228.5,318.5C 227.505,307.679 227.172,296.679 227.5,285.5C 240.5,285.5 253.5,285.5 266.5,285.5 Z"/></g>
<g><path style="opacity:1" fill="#e87a7a" d="M 228.5,333.5 C 228.5,344.833 228.5,356.167 228.5,367.5C 242.01,367.171 255.344,367.504 268.5,368.5C 254.833,368.5 241.167,368.5 227.5,368.5C 227.172,356.655 227.505,344.988 228.5,333.5 Z"/></g>
<g><path style="opacity:1" fill="#ec9393" d="M 76.5,386.5 C 76.5,391.5 76.5,396.5 76.5,401.5C 78.1667,401.5 79.8333,401.5 81.5,401.5C 79.7354,402.461 77.7354,402.795 75.5,402.5C 75.1786,396.974 75.5119,391.64 76.5,386.5 Z"/></g>
</svg>
