<?xml version="1.0" encoding="UTF-8"?>
<!DOCTYPE svg PUBLIC "-//W3C//DTD SVG 1.1//EN" "http://www.w3.org/Graphics/SVG/1.1/DTD/svg11.dtd">
<svg xmlns="http://www.w3.org/2000/svg" version="1.1" width="512px" height="512px" style="shape-rendering:geometricPrecision; text-rendering:geometricPrecision; image-rendering:optimizeQuality; fill-rule:evenodd; clip-rule:evenodd" xmlns:xlink="http://www.w3.org/1999/xlink">
<g><path style="opacity:0.999" fill="#e1e4e6" d="M 119.5,-0.5 C 196.833,-0.5 274.167,-0.5 351.5,-0.5C 351.333,33.835 351.5,68.1683 352,102.5C 357.231,118.243 368.065,126.576 384.5,127.5C 415.833,159.5 447.5,191.167 479.5,222.5C 479.667,310.834 479.5,399.167 479,487.5C 477.608,493.214 474.941,498.214 471,502.5C 466.4,506.626 461.234,509.626 455.5,511.5C 343.5,511.5 231.5,511.5 119.5,511.5C 110.081,508.252 102.914,502.252 98,493.5C 97.3333,491.5 96.6667,489.5 96,487.5C 95.5001,474.171 95.3334,460.837 95.5,447.5C 198.167,447.667 300.834,447.5 403.5,447C 408.185,445.65 411.685,442.817 414,438.5C 415.37,432.258 415.87,425.925 415.5,419.5C 415.667,363.166 415.5,306.832 415,250.5C 412.744,245.243 408.91,241.743 403.5,240C 300.834,239.5 198.167,239.333 95.5,239.5C 95.3333,167.499 95.5,95.4992 96,23.5C 97.3923,17.7863 100.059,12.7863 104,8.5C 108.6,4.37379 113.766,1.37379 119.5,-0.5 Z"/></g>
<g><path style="opacity:1" fill="#b0b7bd" d="M 351.5,-0.5 C 351.833,-0.5 352.167,-0.5 352.5,-0.5C 394.5,41.8333 436.5,84.1667 478.5,126.5C 447.338,127.498 416.004,127.832 384.5,127.5C 368.065,126.576 357.231,118.243 352,102.5C 351.5,68.1683 351.333,33.835 351.5,-0.5 Z"/></g>
<g><path style="opacity:1" fill="#c9d0d7" d="M 478.5,126.5 C 479.498,158.329 479.832,190.329 479.5,222.5C 447.5,191.167 415.833,159.5 384.5,127.5C 416.004,127.832 447.338,127.498 478.5,126.5 Z"/></g>
<g><path style="opacity:1" fill="#50bee8" d="M 95.5,239.5 C 198.167,239.333 300.834,239.5 403.5,240C 408.91,241.743 412.744,245.243 415,250.5C 415.5,306.832 415.667,363.166 415.5,419.5C 413.35,425.148 409.35,428.981 403.5,431C 300.834,431.5 198.167,431.667 95.5,431.5C 77.4969,431.667 59.4969,431.5 41.5,431C 37,429.167 33.8333,426 32,421.5C 31.3333,364.167 31.3333,306.833 32,249.5C 33.8333,245 37,241.833 41.5,240C 59.4969,239.5 77.4969,239.333 95.5,239.5 Z"/></g>
<g><path style="opacity:1" fill="#fcfdfe" d="M 308.5,292.5 C 322.144,292.108 333.644,296.775 343,306.5C 344.265,313.402 341.432,317.402 334.5,318.5C 330.391,316.234 326.391,313.734 322.5,311C 308.48,305.782 296.647,308.948 287,320.5C 279.163,334.273 279.829,347.606 289,360.5C 297.408,368.113 307.241,370.613 318.5,368C 322.326,367.168 325.826,365.668 329,363.5C 329.499,358.177 329.666,352.844 329.5,347.5C 321.415,347.901 313.415,347.401 305.5,346C 301.231,341.291 301.564,336.958 306.5,333C 317.833,332.333 329.167,332.333 340.5,333C 342,334.5 343.5,336 345,337.5C 345.667,347.5 345.667,357.5 345,367.5C 344.529,369.246 343.862,370.913 343,372.5C 327.201,385.14 309.701,387.974 290.5,381C 273.001,372.704 264.335,358.704 264.5,339C 267.074,311.929 281.741,296.429 308.5,292.5 Z"/></g>
<g><path style="opacity:1" fill="#fbfdfe" d="M 219.5,357.5 C 212.167,357.5 204.833,357.5 197.5,357.5C 197.5,363.5 197.5,369.5 197.5,375.5C 197.123,380.709 194.29,383.375 189,383.5C 184.358,382.858 181.692,380.192 181,375.5C 180.333,350.5 180.333,325.5 181,300.5C 182.122,298.376 183.622,296.543 185.5,295C 191.563,293.874 197.729,293.374 204,293.5C 215.674,292.474 226.841,294.307 237.5,299C 251.928,312.459 254.428,327.959 245,345.5C 238.355,353.405 229.855,357.405 219.5,357.5 Z"/></g>
<g><path style="opacity:1" fill="#fcfefe" d="M 146.5,294.5 C 152.493,293.332 156.326,295.665 158,301.5C 158.667,321.167 158.667,340.833 158,360.5C 154.486,377.519 143.986,385.853 126.5,385.5C 115.228,385.614 106.062,381.281 99,372.5C 95.5746,365.121 97.7413,360.455 105.5,358.5C 109.139,359.619 112.139,361.786 114.5,365C 122.274,370.72 130.107,370.886 138,365.5C 139.275,363.283 140.275,360.949 141,358.5C 141.333,338.833 141.667,319.167 142,299.5C 143.366,297.638 144.866,295.972 146.5,294.5 Z"/></g>
<g><path style="opacity:1" fill="#88d2ef" d="M 222.5,310.5 C 214.5,310.5 206.5,310.5 198.5,310.5C 198.5,320.833 198.5,331.167 198.5,341.5C 197.506,331.013 197.172,320.346 197.5,309.5C 206.017,309.174 214.35,309.507 222.5,310.5 Z"/></g>
<g><path style="opacity:1" fill="#51bee8" d="M 222.5,310.5 C 231.418,313.657 235.251,319.991 234,329.5C 232.57,335.261 229.07,339.095 223.5,341C 215.173,341.5 206.84,341.666 198.5,341.5C 198.5,331.167 198.5,320.833 198.5,310.5C 206.5,310.5 214.5,310.5 222.5,310.5 Z"/></g>
<g><path style="opacity:1" fill="#7eceee" d="M 219.5,357.5 C 212.687,358.491 205.687,358.825 198.5,358.5C 198.822,364.358 198.489,370.025 197.5,375.5C 197.5,369.5 197.5,363.5 197.5,357.5C 204.833,357.5 212.167,357.5 219.5,357.5 Z"/></g>
<g><path style="opacity:1" fill="#c9d1d8" d="M 415.5,419.5 C 415.87,425.925 415.37,432.258 414,438.5C 411.685,442.817 408.185,445.65 403.5,447C 300.834,447.5 198.167,447.667 95.5,447.5C 95.5,442.167 95.5,436.833 95.5,431.5C 198.167,431.667 300.834,431.5 403.5,431C 409.35,428.981 413.35,425.148 415.5,419.5 Z"/></g>
</svg>
