<?xml version="1.0" encoding="UTF-8"?>
<!DOCTYPE svg PUBLIC "-//W3C//DTD SVG 1.1//EN" "http://www.w3.org/Graphics/SVG/1.1/DTD/svg11.dtd">
<svg xmlns="http://www.w3.org/2000/svg" version="1.1" width="512px" height="512px" style="shape-rendering:geometricPrecision; text-rendering:geometricPrecision; image-rendering:optimizeQuality; fill-rule:evenodd; clip-rule:evenodd" xmlns:xlink="http://www.w3.org/1999/xlink">
<g><path style="opacity:0.997" fill="#edecec" d="M 145.5,-0.5 C 204.167,-0.5 262.833,-0.5 321.5,-0.5C 321.168,40.0034 321.501,80.3368 322.5,120.5C 324.95,131.95 331.95,138.617 343.5,140.5C 383.33,141.499 423.33,141.832 463.5,141.5C 463.667,247.167 463.5,352.834 463,458.5C 457.517,487.146 440.684,504.813 412.5,511.5C 323.5,511.5 234.5,511.5 145.5,511.5C 117.307,504.804 100.474,487.138 95,458.5C 94.5,431.835 94.3334,405.169 94.5,378.5C 195.999,377.667 297.666,377.167 399.5,377C 415.333,373.167 425.167,363.333 429,347.5C 429.667,311.5 429.667,275.5 429,239.5C 424.733,224.233 414.899,214.733 399.5,211C 297.666,210.833 195.999,210.333 94.5,209.5C 94.0256,155.134 94.5256,100.801 96,46.5C 103.329,21.0009 119.829,5.33422 145.5,-0.5 Z"/></g>
<g><path style="opacity:1" fill="#f07566" d="M 321.5,-0.5 C 322.167,-0.5 322.833,-0.5 323.5,-0.5C 323.5,-0.166667 323.5,0.166667 323.5,0.5C 323.5,0.833333 323.5,1.16667 323.5,1.5C 322.501,40.9965 322.168,80.6632 322.5,120.5C 321.501,80.3368 321.168,40.0034 321.5,-0.5 Z"/></g>
<g><path style="opacity:1" fill="#f15642" d="M 323.5,1.5 C 369.5,47.8333 415.5,94.1667 461.5,140.5C 422.167,140.5 382.833,140.5 343.5,140.5C 331.95,138.617 324.95,131.95 322.5,120.5C 322.168,80.6632 322.501,40.9965 323.5,1.5 Z"/></g>
<g><path style="opacity:0.906" fill="#f88e85" d="M 323.5,0.5 C 370.167,46.5 416.5,92.8333 462.5,139.5C 462.5,140.167 462.167,140.5 461.5,140.5C 415.5,94.1667 369.5,47.8333 323.5,1.5C 323.5,1.16667 323.5,0.833333 323.5,0.5 Z"/></g>
<g><path style="opacity:1" fill="#eeb0a8" d="M 462.5,139.5 C 463.338,139.842 463.672,140.508 463.5,141.5C 423.33,141.832 383.33,141.499 343.5,140.5C 382.833,140.5 422.167,140.5 461.5,140.5C 462.167,140.5 462.5,140.167 462.5,139.5 Z"/></g>
<g><path style="opacity:0.998" fill="#f15642" d="M 94.5,209.5 C 195.999,210.333 297.666,210.833 399.5,211C 414.899,214.733 424.733,224.233 429,239.5C 429.667,275.5 429.667,311.5 429,347.5C 425.167,363.333 415.333,373.167 399.5,377C 297.666,377.167 195.999,377.667 94.5,378.5C 77.041,380.524 63.2077,374.524 53,360.5C 50.3399,356.186 48.6732,351.519 48,346.5C 47.3333,311.5 47.3333,276.5 48,241.5C 51.9394,223.894 62.7727,213.394 80.5,210C 85.1548,209.501 89.8215,209.334 94.5,209.5 Z"/></g>
<g><path style="opacity:1" fill="#fffcfc" d="M 328.5,319.5 C 329.49,313.69 329.823,307.69 329.5,301.5C 324.167,301.5 318.833,301.5 313.5,301.5C 313.5,297.5 313.5,293.5 313.5,289.5C 323.5,289.5 333.5,289.5 343.5,289.5C 343.667,300.505 343.5,311.505 343,322.5C 340.891,334.917 333.725,342.417 321.5,345C 306.567,348.698 295.067,344.198 287,331.5C 285.798,328.226 284.798,324.893 284,321.5C 283.333,302.167 283.333,282.833 284,263.5C 286.326,252.509 292.826,245.342 303.5,242C 327.973,237.871 340.973,248.038 342.5,272.5C 337.833,272.5 333.167,272.5 328.5,272.5C 327.268,257.88 319.602,252.713 305.5,257C 302.266,258.944 300.1,261.778 299,265.5C 298.333,283.5 298.333,301.5 299,319.5C 299.985,327.819 304.651,331.819 313,331.5C 321.853,332.138 327.019,328.138 328.5,319.5 Z"/></g>
<g><path style="opacity:1" fill="#fffbfb" d="M 135.5,242.5 C 145.839,242.334 156.172,242.5 166.5,243C 180.655,244.821 189.488,252.654 193,266.5C 196.312,298.021 182.145,312.021 150.5,308.5C 150.5,320.5 150.5,332.5 150.5,344.5C 145.5,344.5 140.5,344.5 135.5,344.5C 135.5,310.5 135.5,276.5 135.5,242.5 Z"/></g>
<g><path style="opacity:1" fill="#f8ada3" d="M 220.5,243.5 C 215.833,243.5 211.167,243.5 206.5,243.5C 206.5,277.167 206.5,310.833 206.5,344.5C 205.502,310.671 205.168,276.671 205.5,242.5C 210.695,242.179 215.695,242.513 220.5,243.5 Z"/></g>
<g><path style="opacity:1" fill="#fffbfa" d="M 206.5,344.5 C 206.5,310.833 206.5,277.167 206.5,243.5C 211.167,243.5 215.833,243.5 220.5,243.5C 232.184,267.356 243.017,291.69 253,316.5C 251.685,291.884 251.185,267.218 251.5,242.5C 256.5,242.5 261.5,242.5 266.5,242.5C 266.5,276.5 266.5,310.5 266.5,344.5C 261.238,344.805 256.072,344.471 251,343.5C 240.278,319.999 229.944,296.332 220,272.5C 220.404,296.48 220.571,320.48 220.5,344.5C 215.833,344.5 211.167,344.5 206.5,344.5 Z"/></g>
<g><path style="opacity:1" fill="#f15743" d="M 150.5,256.5 C 173.544,253.276 182.378,262.943 177,285.5C 175.283,290.551 171.783,293.385 166.5,294C 161.177,294.499 155.844,294.666 150.5,294.5C 150.5,281.833 150.5,269.167 150.5,256.5 Z"/></g>
<g><path style="opacity:1" fill="#f8a499" d="M 343.5,289.5 C 333.5,289.5 323.5,289.5 313.5,289.5C 313.5,293.5 313.5,297.5 313.5,301.5C 318.833,301.5 324.167,301.5 329.5,301.5C 329.823,307.69 329.49,313.69 328.5,319.5C 328.5,313.833 328.5,308.167 328.5,302.5C 323.167,302.5 317.833,302.5 312.5,302.5C 312.5,297.833 312.5,293.167 312.5,288.5C 323.014,288.172 333.347,288.506 343.5,289.5 Z"/></g>
</svg>
